<svg version="1" xmlns="http://www.w3.org/2000/svg" width="146.667" height="146.667" viewBox="0 0 110.000000 110.000000"><path d="M65.6 6.7c-.1.1-1.8.4-3.6.7C50.2 8.8 32.7 16 23.2 23.1 13 30.9 4.4 41.6 1.3 50.7-.4 55.5.3 65 2.6 69.6c6 11.5 33 16.8 40.4 7.9 1.1-1.3 1.5-4.7 1.7-13 .2-14.2.6-16.5 3.7-22.9 3.2-6.5 11.1-14.3 24.4-24 5.6-4.2 10.2-8.2 10.2-9 0-1.9-4.3-2.8-11.4-2.4-3.2.2-5.9.4-6 .5z"/><path d="M72.3 27.7c-2.9.6-7.3 5.1-7.4 7.7-.1 1.1-.1 6.2-.1 11.2.1 9-1.3 16.6-3.8 21.4-2.9 5.6-11.1 13.8-20.5 20.7C29.4 96.7 26 99.6 26 101c0 1.5 6.7 2.3 14.5 1.6 26.3-2.3 51.4-16.1 63.2-34.9 7.4-11.8 7.3-26.1-.3-32.8-6.5-5.7-21.6-9.2-31.1-7.2z"/></svg>