<svg xmlns="http://www.w3.org/2000/svg" width="29" height="28.811" viewBox="0 0 29 28.811">
  <g id="globalization" transform="translate(0 -1.668)">
    <path id="Path_2" data-name="Path 2" d="M276.063,141.4a28.783,28.783,0,0,1-5.093.58v4.891h5.8A26.526,26.526,0,0,0,276.063,141.4Z" transform="translate(-255.501 -131.761)" fill="#fff"/>
    <path id="Path_3" data-name="Path 3" d="M5.795,113.343a28.227,28.227,0,0,1,.752-5.861,18.561,18.561,0,0,1-3.91-1.559A13.958,13.958,0,0,0,0,113.343Z" transform="translate(0 -98.285)" fill="#fff"/>
    <path id="Path_4" data-name="Path 4" d="M5.795,270.97H0a13.959,13.959,0,0,0,2.637,7.42,18.561,18.561,0,0,1,3.91-1.559A28.223,28.223,0,0,1,5.795,270.97Z" transform="translate(0 -253.881)" fill="#fff"/>
    <path id="Path_5" data-name="Path 5" d="M272.517,2.529a4.15,4.15,0,0,0-1.546-.861v6.61a27.221,27.221,0,0,0,4.644-.519,16.86,16.86,0,0,0-.932-2.294A9.175,9.175,0,0,0,272.517,2.529Z" transform="translate(-255.53)" fill="#fff"/>
    <path id="Path_6" data-name="Path 6" d="M70.645,406.48a17.218,17.218,0,0,0-3.289,1.274c.131.142.264.282.4.419a14.028,14.028,0,0,0,5.549,3.425,12.42,12.42,0,0,1-1.6-2.473A18.58,18.58,0,0,1,70.645,406.48Z" transform="translate(-63.655 -381.704)" fill="#fff"/>
    <path id="Path_7" data-name="Path 7" d="M157.388,5.464a16.862,16.862,0,0,0-.932,2.294,27.22,27.22,0,0,0,4.644.519V1.668a4.151,4.151,0,0,0-1.546.861A9.174,9.174,0,0,0,157.388,5.464Z" transform="translate(-147.541 0)" fill="#fff"/>
    <path id="Path_8" data-name="Path 8" d="M393.533,270.97a28.227,28.227,0,0,1-.752,5.861,18.561,18.561,0,0,1,3.91,1.559,13.959,13.959,0,0,0,2.637-7.42Z" transform="translate(-370.328 -253.881)" fill="#fff"/>
    <path id="Path_9" data-name="Path 9" d="M338.96,17.446a17.214,17.214,0,0,0,3.289-1.274c-.131-.142-.264-.282-.4-.419a14.028,14.028,0,0,0-5.549-3.425,12.422,12.422,0,0,1,1.6,2.473A18.583,18.583,0,0,1,338.96,17.446Z" transform="translate(-316.951 -10.075)" fill="#fff"/>
    <path id="Path_10" data-name="Path 10" d="M274.681,392.793a16.858,16.858,0,0,0,.932-2.294,27.221,27.221,0,0,0-4.644-.519v6.61a4.149,4.149,0,0,0,1.546-.861A9.172,9.172,0,0,0,274.681,392.793Z" transform="translate(-255.529 -366.111)" fill="#fff"/>
    <path id="Path_11" data-name="Path 11" d="M392.781,107.484a28.228,28.228,0,0,1,.752,5.861h5.795a13.958,13.958,0,0,0-2.637-7.42A18.564,18.564,0,0,1,392.781,107.484Z" transform="translate(-370.328 -98.287)" fill="#fff"/>
    <path id="Path_12" data-name="Path 12" d="M270.97,270.97v4.891a28.784,28.784,0,0,1,5.093.58,26.526,26.526,0,0,0,.7-5.471Z" transform="translate(-255.501 -253.935)" fill="#fff"/>
    <path id="Path_13" data-name="Path 13" d="M141.273,146.873v-4.891a28.784,28.784,0,0,1-5.093-.58,26.527,26.527,0,0,0-.7,5.471Z" transform="translate(-127.743 -131.761)" fill="#fff"/>
    <path id="Path_14" data-name="Path 14" d="M70.645,17.446A18.574,18.574,0,0,1,71.71,14.8a12.419,12.419,0,0,1,1.6-2.473,14.029,14.029,0,0,0-5.549,3.425c-.137.137-.27.277-.4.419A17.22,17.22,0,0,0,70.645,17.446Z" transform="translate(-63.655 -10.075)" fill="#fff"/>
    <path id="Path_15" data-name="Path 15" d="M338.961,406.48a18.573,18.573,0,0,1-1.064,2.644,12.422,12.422,0,0,1-1.6,2.473,14.028,14.028,0,0,0,5.549-3.425c.137-.137.27-.277.4-.419A17.217,17.217,0,0,0,338.961,406.48Z" transform="translate(-316.952 -381.704)" fill="#fff"/>
    <path id="Path_16" data-name="Path 16" d="M141.273,270.97h-5.8a26.526,26.526,0,0,0,.7,5.471,28.783,28.783,0,0,1,5.093-.58Z" transform="translate(-127.743 -253.935)" fill="#fff"/>
    <path id="Path_17" data-name="Path 17" d="M159.554,395.73a4.151,4.151,0,0,0,1.546.861v-6.61a27.221,27.221,0,0,0-4.644.519,16.858,16.858,0,0,0,.932,2.294A9.174,9.174,0,0,0,159.554,395.73Z" transform="translate(-147.541 -366.112)" fill="#fff"/>
  </g>
</svg>
