<svg xmlns="http://www.w3.org/2000/svg" xmlns:xlink="http://www.w3.org/1999/xlink" width="130" height="136.292" viewBox="0 0 130 136.292">
  <defs>
    <filter id="Polygon_4" x="0" y="0" width="130" height="136.292" filterUnits="userSpaceOnUse">
      <feOffset dy="3" input="SourceAlpha"/>
      <feGaussianBlur stdDeviation="10" result="blur"/>
      <feFlood flood-opacity="0.161"/>
      <feComposite operator="in" in2="blur"/>
      <feComposite in="SourceGraphic"/>
    </filter>
  </defs>
  <g id="Group_1005" data-name="Group 1005" transform="translate(-1451 -3815)">
    <g transform="matrix(1, 0, 0, 1, 1451, 3815)" filter="url(#Polygon_4)">
      <g id="Polygon_4-2" data-name="Polygon 4" transform="translate(100 27) rotate(90)" fill="none">
        <path d="M51.28,0a10,10,0,0,1,8.781,5.215l13.624,25a10,10,0,0,1,0,9.57l-13.624,25A10,10,0,0,1,51.28,70H25.012a10,10,0,0,1-8.781-5.215l-13.624-25a10,10,0,0,1,0-9.57l13.624-25A10,10,0,0,1,25.012,0Z" stroke="none"/>
        <path d="M 25.01203536987305 2 C 22.08139038085938 2 19.38969039916992 3.598602294921875 17.98735809326172 6.171943664550781 L 4.363754272460938 31.17194366455078 C 3.057525634765625 33.56894302368164 3.057525634765625 36.43104553222656 4.363754272460938 38.82804489135742 L 17.98734664916992 63.82805633544922 C 19.38967895507812 66.40139770507812 22.08137893676758 68 25.01202392578125 68 L 51.28011322021484 68 C 54.21074676513672 68 56.90244674682617 66.40139770507812 58.30477905273438 63.82805633544922 L 71.92838287353516 38.82805633544922 C 73.23460388183594 36.43104553222656 73.23460388183594 33.56895446777344 71.92838287353516 31.17194366455078 L 58.30477905273438 6.171943664550781 C 56.90244674682617 3.598602294921875 54.21074676513672 2 51.28011322021484 2 L 25.01203536987305 2 M 25.01203536987305 0 L 51.28011322021484 0 C 54.94095611572266 0 58.3092041015625 2.000396728515625 60.06094360351562 5.214935302734375 L 73.68454742431641 30.21493148803711 C 75.31008911132812 33.19789886474609 75.31008911132812 36.80210113525391 73.68454742431641 39.78506469726562 L 60.06094360351562 64.78506469726562 C 58.3092041015625 67.99960327148438 54.94095611572266 70 51.28011322021484 70 L 25.01202392578125 70 C 21.35116958618164 70 17.98292541503906 67.99960327148438 16.23117828369141 64.78506469726562 L 2.607589721679688 39.78505706787109 C 0.9820480346679688 36.80210113525391 0.9820480346679688 33.1978874206543 2.607589721679688 30.21493148803711 L 16.2311897277832 5.214935302734375 C 17.98293685913086 2.000396728515625 21.35118103027344 0 25.01203536987305 0 Z" stroke="none" fill="#fff"/>
      </g>
    </g>
    <g id="Group_1001" data-name="Group 1001" transform="translate(1495.325 3864.629)">
      <g id="email">
        <g id="Group_994" data-name="Group 994" transform="translate(2.052)">
          <g id="Group_993" data-name="Group 993" transform="translate(0 0)">
            <path id="Path_21" data-name="Path 21" d="M60.921,61H27.259a3.548,3.548,0,0,0-1.538.36L44.01,79.649l4.1-3.939h0L62.459,61.36A3.548,3.548,0,0,0,60.921,61Z" transform="translate(-25.721 -61)" fill="#fff"/>
          </g>
        </g>
        <g id="Group_996" data-name="Group 996" transform="translate(26.978 2.052)">
          <g id="Group_995" data-name="Group 995" transform="translate(0 0)">
            <path id="Path_22" data-name="Path 22" d="M351.716,86.728l-13.5,13.5,13.5,13.5a3.548,3.548,0,0,0,.36-1.538V88.265A3.548,3.548,0,0,0,351.716,86.728Z" transform="translate(-338.213 -86.728)" fill="#fff"/>
          </g>
        </g>
        <g id="Group_998" data-name="Group 998" transform="translate(0 2.052)">
          <g id="Group_997" data-name="Group 997" transform="translate(0 0)">
            <path id="Path_23" data-name="Path 23" d="M.36,86.721A3.548,3.548,0,0,0,0,88.259v23.93a3.549,3.549,0,0,0,.359,1.537l13.5-13.5Z" transform="translate(0 -86.721)" fill="#fff"/>
          </g>
        </g>
        <g id="Group_1000" data-name="Group 1000" transform="translate(2.051 17.247)">
          <g id="Group_999" data-name="Group 999">
            <path id="Path_24" data-name="Path 24" d="M48.949,277.211l-4.1,3.94a1.2,1.2,0,0,1-1.692,0l-3.94-3.94-13.5,13.5a3.548,3.548,0,0,0,1.538.36H60.914a3.548,3.548,0,0,0,1.538-.36Z" transform="translate(-25.714 -277.211)" fill="#fff"/>
          </g>
        </g>
      </g>
    </g>
  </g>
</svg>
