<svg xmlns="http://www.w3.org/2000/svg" xmlns:xlink="http://www.w3.org/1999/xlink" width="130" height="136.292" viewBox="0 0 130 136.292">
  <defs>
    <filter id="Path_20" x="14.05" y="17.505" width="101.753" height="101.752" filterUnits="userSpaceOnUse">
      <feOffset dy="3" input="SourceAlpha"/>
      <feGaussianBlur stdDeviation="10" result="blur"/>
      <feFlood flood-opacity="0.161"/>
      <feComposite operator="in" in2="blur"/>
      <feComposite in="SourceGraphic"/>
    </filter>
    <filter id="Polygon_2" x="0" y="0" width="130" height="136.292" filterUnits="userSpaceOnUse">
      <feOffset dy="3" input="SourceAlpha"/>
      <feGaussianBlur stdDeviation="10" result="blur-2"/>
      <feFlood flood-opacity="0.161"/>
      <feComposite operator="in" in2="blur-2"/>
      <feComposite in="SourceGraphic"/>
    </filter>
  </defs>
  <g id="Group_1003" data-name="Group 1003" transform="translate(-171 -3815)">
    <g transform="matrix(1, 0, 0, 1, 171, 3815)" filter="url(#Path_20)">
      <path id="Path_20-2" data-name="Path 20" d="M40.15,32.048l0,0L29.706,22.808a1.223,1.223,0,0,0-1.676.051L26.309,24.58l-2.134-2.134,3.8-4.629A9.438,9.438,0,0,0,41.55,7.488a1.144,1.144,0,0,0-1.929-.574l-4.006,4.006a1.862,1.862,0,0,1-2.634,0L30.835,8.773a1.861,1.861,0,0,1,0-2.633L34.84,2.133A1.144,1.144,0,0,0,34.266.2,9.438,9.438,0,0,0,23.937,13.776l-4.629,3.8-9.44-9.44,1.045-1.045a1.015,1.015,0,0,0-.088-1.512L5.415,1.127a1.013,1.013,0,0,0-1.346.078L1.2,4.071a1.013,1.013,0,0,0-.078,1.346L5.58,10.826a1.014,1.014,0,0,0,1.511.088L8.137,9.868l9.271,9.271L1.24,32.42a3.243,3.243,0,0,0-.29,4.844L4.489,40.8a3.243,3.243,0,0,0,4.844-.29L22.615,24.345l1.965,1.965L22.791,28.1a1.224,1.224,0,0,0-.046,1.682l9.322,10.393A4.78,4.78,0,0,0,39,40.352L40.351,39a4.786,4.786,0,0,0-.2-6.954Zm-33.12,3.9a1.223,1.223,0,1,1,1.223-1.223A1.223,1.223,0,0,1,7.03,35.946Z" transform="translate(44.05 44.5)" fill="#fff"/>
    </g>
    <g transform="matrix(1, 0, 0, 1, 171, 3815)" filter="url(#Polygon_2)">
      <g id="Polygon_2-2" data-name="Polygon 2" transform="translate(100 27) rotate(90)" fill="none">
        <path d="M51.28,0a10,10,0,0,1,8.781,5.215l13.624,25a10,10,0,0,1,0,9.57l-13.624,25A10,10,0,0,1,51.28,70H25.012a10,10,0,0,1-8.781-5.215l-13.624-25a10,10,0,0,1,0-9.57l13.624-25A10,10,0,0,1,25.012,0Z" stroke="none"/>
        <path d="M 25.01203536987305 2 C 22.08139038085938 2 19.38969039916992 3.598602294921875 17.98735809326172 6.171943664550781 L 4.363754272460938 31.17194366455078 C 3.057525634765625 33.56894302368164 3.057525634765625 36.43104553222656 4.363754272460938 38.82804489135742 L 17.98734664916992 63.82805633544922 C 19.38967895507812 66.40139770507812 22.08137893676758 68 25.01202392578125 68 L 51.28011322021484 68 C 54.21074676513672 68 56.90244674682617 66.40139770507812 58.30477905273438 63.82805633544922 L 71.92838287353516 38.82805633544922 C 73.23460388183594 36.43104553222656 73.23460388183594 33.56895446777344 71.92838287353516 31.17194366455078 L 58.30477905273438 6.171943664550781 C 56.90244674682617 3.598602294921875 54.21074676513672 2 51.28011322021484 2 L 25.01203536987305 2 M 25.01203536987305 0 L 51.28011322021484 0 C 54.94095611572266 0 58.3092041015625 2.000396728515625 60.06094360351562 5.214935302734375 L 73.68454742431641 30.21493148803711 C 75.31008911132812 33.19789886474609 75.31008911132812 36.80210113525391 73.68454742431641 39.78506469726562 L 60.06094360351562 64.78506469726562 C 58.3092041015625 67.99960327148438 54.94095611572266 70 51.28011322021484 70 L 25.01202392578125 70 C 21.35116958618164 70 17.98292541503906 67.99960327148438 16.23117828369141 64.78506469726562 L 2.607589721679688 39.78505706787109 C 0.9820480346679688 36.80210113525391 0.9820480346679688 33.1978874206543 2.607589721679688 30.21493148803711 L 16.2311897277832 5.214935302734375 C 17.98293685913086 2.000396728515625 21.35118103027344 0 25.01203536987305 0 Z" stroke="none" fill="#fff"/>
      </g>
    </g>
  </g>
</svg>
