<svg xmlns="http://www.w3.org/2000/svg" xmlns:xlink="http://www.w3.org/1999/xlink" width="130" height="136.292" viewBox="0 0 130 136.292">
  <defs>
    <filter id="Polygon_3" x="0" y="0" width="130" height="136.292" filterUnits="userSpaceOnUse">
      <feOffset dy="3" input="SourceAlpha"/>
      <feGaussianBlur stdDeviation="10" result="blur"/>
      <feFlood flood-opacity="0.161"/>
      <feComposite operator="in" in2="blur"/>
      <feComposite in="SourceGraphic"/>
    </filter>
    <filter id="Path_25" x="14.906" y="17.735" width="100.5" height="100.5" filterUnits="userSpaceOnUse">
      <feOffset dy="3" input="SourceAlpha"/>
      <feGaussianBlur stdDeviation="10" result="blur-2"/>
      <feFlood flood-opacity="0.161"/>
      <feComposite operator="in" in2="blur-2"/>
      <feComposite in="SourceGraphic"/>
    </filter>
  </defs>
  <g id="Group_1004" data-name="Group 1004" transform="translate(-820 -3815)">
    <g transform="matrix(1, 0, 0, 1, 820, 3815)" filter="url(#Polygon_3)">
      <g id="Polygon_3-2" data-name="Polygon 3" transform="translate(100 27) rotate(90)" fill="none">
        <path d="M51.28,0a10,10,0,0,1,8.781,5.215l13.624,25a10,10,0,0,1,0,9.57l-13.624,25A10,10,0,0,1,51.28,70H25.012a10,10,0,0,1-8.781-5.215l-13.624-25a10,10,0,0,1,0-9.57l13.624-25A10,10,0,0,1,25.012,0Z" stroke="none"/>
        <path d="M 25.01203536987305 2 C 22.08139038085938 2 19.38969039916992 3.598602294921875 17.98735809326172 6.171943664550781 L 4.363754272460938 31.17194366455078 C 3.057525634765625 33.56894302368164 3.057525634765625 36.43104553222656 4.363754272460938 38.82804489135742 L 17.98734664916992 63.82805633544922 C 19.38967895507812 66.40139770507812 22.08137893676758 68 25.01202392578125 68 L 51.28011322021484 68 C 54.21074676513672 68 56.90244674682617 66.40139770507812 58.30477905273438 63.82805633544922 L 71.92838287353516 38.82805633544922 C 73.23460388183594 36.43104553222656 73.23460388183594 33.56895446777344 71.92838287353516 31.17194366455078 L 58.30477905273438 6.171943664550781 C 56.90244674682617 3.598602294921875 54.21074676513672 2 51.28011322021484 2 L 25.01203536987305 2 M 25.01203536987305 0 L 51.28011322021484 0 C 54.94095611572266 0 58.3092041015625 2.000396728515625 60.06094360351562 5.214935302734375 L 73.68454742431641 30.21493148803711 C 75.31008911132812 33.19789886474609 75.31008911132812 36.80210113525391 73.68454742431641 39.78506469726562 L 60.06094360351562 64.78506469726562 C 58.3092041015625 67.99960327148438 54.94095611572266 70 51.28011322021484 70 L 25.01202392578125 70 C 21.35116958618164 70 17.98292541503906 67.99960327148438 16.23117828369141 64.78506469726562 L 2.607589721679688 39.78505706787109 C 0.9820480346679688 36.80210113525391 0.9820480346679688 33.1978874206543 2.607589721679688 30.21493148803711 L 16.2311897277832 5.214935302734375 C 17.98293685913086 2.000396728515625 21.35118103027344 0 25.01203536987305 0 Z" stroke="none" fill="#fff"/>
      </g>
    </g>
    <g transform="matrix(1, 0, 0, 1, 820, 3815)" filter="url(#Path_25)">
      <path id="Path_25-2" data-name="Path 25" d="M49.029,46.766,39.773,37.51A16.212,16.212,0,1,0,37.5,39.781l9.256,9.248a1.6,1.6,0,0,0,2.271-2.263Zm-21.8-6.545a13,13,0,1,1,13-13A13.012,13.012,0,0,1,27.225,40.221Z" transform="translate(34.91 34.73)" fill="#fff" stroke="#fff" stroke-width="2"/>
    </g>
  </g>
</svg>
