<svg xmlns="http://www.w3.org/2000/svg" width="23.238" height="24.099" viewBox="0 0 23.238 24.099">
  <g id="Group_16" data-name="Group 16" transform="translate(0 24.099) rotate(-90)">
    <path id="Path_8" data-name="Path 8" d="M129.348,11.083,117.013.233a.911.911,0,0,0-1.217,0L114.472,1.4a.7.7,0,0,0-.264.536.7.7,0,0,0,.264.536l10.4,9.151-10.4,9.151a.674.674,0,0,0,0,1.071l1.324,1.164a.912.912,0,0,0,1.217,0l12.335-10.85a.675.675,0,0,0,0-1.071Z" transform="translate(-105.513 0)" fill="#fff"/>
    <path id="Path_9" data-name="Path 9" d="M19.975,11.619a.7.7,0,0,0-.265-.536L7.376.233a.912.912,0,0,0-1.218,0L4.835,1.4a.7.7,0,0,0-.265.536.7.7,0,0,0,.265.536l10.4,9.151L4.835,20.77a.674.674,0,0,0,0,1.071l1.323,1.164a.913.913,0,0,0,1.218,0L19.71,12.155A.7.7,0,0,0,19.975,11.619Z" transform="translate(-4.57 0)" fill="#fff"/>
  </g>
</svg>
