<svg id="icon_youtube" xmlns="http://www.w3.org/2000/svg" width="30" height="30" viewBox="0 0 30 30">
  <path id="Path_19" data-name="Path 19" d="M224.113,214.038l5.208-3-5.208-3Zm0,0" transform="translate(-211.153 -196.038)" fill="#fff"/>
  <path id="Path_20" data-name="Path 20" d="M15,0A15,15,0,1,0,30,15,15,15,0,0,0,15,0Zm9.373,15.015a24.757,24.757,0,0,1-.386,4.509,2.349,2.349,0,0,1-1.652,1.652A57.012,57.012,0,0,1,15,21.563a54.971,54.971,0,0,1-7.335-.4,2.349,2.349,0,0,1-1.652-1.652A24.648,24.648,0,0,1,5.627,15a24.741,24.741,0,0,1,.386-4.509A2.4,2.4,0,0,1,7.665,8.824,57.012,57.012,0,0,1,15,8.438a54.855,54.855,0,0,1,7.335.4,2.349,2.349,0,0,1,1.652,1.652A23.494,23.494,0,0,1,24.373,15.015Zm0,0" fill="#fff"/>
</svg>
